<svg xmlns="http://www.w3.org/2000/svg" width="50" height="50" viewBox="0 0 50 50">
  <g id="account" transform="translate(-75 25)">
    <path id="Path_1" data-name="Path 1" d="M50,24.975A25,25,0,1,0,8.85,44.007c.05.05.1.05.1.1.45.35.9.7,1.4,1.05a6.684,6.684,0,0,1,.7.547,24.957,24.957,0,0,0,28,0c.246-.147.446-.344.7-.5.45-.347.95-.7,1.4-1.047.05-.05.1-.05.1-.1A25.423,25.423,0,0,0,50,24.974ZM25,46.853a21.7,21.7,0,0,1-12.55-4,10.2,10.2,0,0,1,.25-1.2,13.032,13.032,0,0,1,1.3-3.1,11,11,0,0,1,2-2.55,14.039,14.039,0,0,1,2.55-2,12.619,12.619,0,0,1,3.05-1.25,13.291,13.291,0,0,1,12.55,3.2,12.517,12.517,0,0,1,2.7,4.047,13.284,13.284,0,0,1,.75,2.847,21.969,21.969,0,0,1-12.6,4ZM17.35,23.728a8.2,8.2,0,0,1,0-6.4,8.527,8.527,0,0,1,4.45-4.444,7.8,7.8,0,0,1,3.2-.65,7.635,7.635,0,0,1,3.2.65,8.527,8.527,0,0,1,4.45,4.444,7.794,7.794,0,0,1,.65,3.2,7.614,7.614,0,0,1-.65,3.2,8.519,8.519,0,0,1-4.45,4.447,8.485,8.485,0,0,1-6.45,0,8.875,8.875,0,0,1-2.65-1.8,7.893,7.893,0,0,1-1.75-2.65Zm23.2,16.581c0-.1-.05-.15-.05-.25a16.312,16.312,0,0,0-2.15-4.393,15.26,15.26,0,0,0-3.4-3.547,16.272,16.272,0,0,0-3.25-1.9,8.812,8.812,0,0,0,1.45-1.2,13.125,13.125,0,0,0,1.95-2.45,11.325,11.325,0,0,0,1.65-6.043,11.594,11.594,0,0,0-.9-4.594,11.872,11.872,0,0,0-2.55-3.747,12.015,12.015,0,0,0-3.75-2.5,12.223,12.223,0,0,0-9.2,0,11.347,11.347,0,0,0-3.75,2.547,12,12,0,0,0-2.5,3.747,11.594,11.594,0,0,0-.9,4.594,10.871,10.871,0,0,0,.45,3.147,11.5,11.5,0,0,0,1.25,2.9,11.362,11.362,0,0,0,1.95,2.45,8.762,8.762,0,0,0,1.5,1.2,16,16,0,0,0-3.25,1.95,17.323,17.323,0,0,0-3.4,3.5A15.622,15.622,0,0,0,9.55,40.11a.544.544,0,0,0-.05.25A21.868,21.868,0,1,1,46.9,24.975,21.75,21.75,0,0,1,40.55,40.31Z" transform="translate(75 -25)" fill="#f8a51f"/>
  </g>
</svg>
